<svg width="500" height="750" viewBox="0 0 500 750" fill="none" xmlns="http://www.w3.org/2000/svg">
    <rect width="500" height="750" fill="white"/>
    <rect width="500" height="750" fill="#28272E"/>
    <path fill-rule="evenodd" clip-rule="evenodd"
          d="M257.834 240.528C255.439 233.157 245.012 233.157 242.617 240.528L213.346 330.614C212.275 333.91 209.203 336.142 205.738 336.142H111.015C103.266 336.142 100.043 346.059 106.313 350.614L182.945 406.29C185.749 408.328 186.922 411.939 185.851 415.235L156.58 505.321C154.186 512.691 162.621 518.82 168.891 514.265L245.523 458.589C248.327 456.552 252.124 456.552 254.928 458.589L331.559 514.265C337.829 518.82 346.265 512.691 343.87 505.321L314.599 415.235C313.528 411.939 314.702 408.328 317.506 406.29L394.138 350.614C400.407 346.059 397.185 336.142 389.435 336.142H294.713C291.247 336.142 288.176 333.91 287.105 330.614L257.834 240.528ZM250.225 415.651C264.738 415.651 276.503 403.887 276.503 389.374C276.503 374.861 264.738 363.097 250.225 363.097C235.713 363.097 223.948 374.861 223.948 389.374C223.948 403.887 235.713 415.651 250.225 415.651Z"
          fill="#111115"/>
</svg>
